<?xml version="1.0" encoding="utf-8"?>
<!-- Generator: Adobe Illustrator 21.0.0, SVG Export Plug-In . SVG Version: 6.00 Build 0)  -->
<svg version="1.1" id="Layer_1" xmlns="http://www.w3.org/2000/svg" xmlns:xlink="http://www.w3.org/1999/xlink" x="0px" y="0px"
	 viewBox="0 0 110 127" style="enable-background:new 0 0 110 127;" xml:space="preserve">
<style type="text/css">
	.st0{fill:#0A63C5;}
	.st1{fill:#B3ECEC;}
</style>
<g>
	<path class="st0" d="M1.1,75.8C8.6,71.5,16,67.3,23.6,63c3,1.7,5.9,3.4,9.2,5.2c2.6-4.4,5.1-8.8,7.8-13.5c-2.4-1.4-4.5-2.7-6.6-3.8
		c-1.8-1-2.8-2.3-2.7-4.5c0.1-6.7,0.1-13.3,0-20c0-1.6,0.2-2.9,1.8-3.8c6.8-3.9,13.7-7.9,20.6-11.8c6.8,3.9,13.6,7.8,20.3,11.6
		c1.5,0.8,2.1,2.1,2.2,3.7c0,7.7,0,15.4,0,23c-3.3,2-6.2,3.8-9.2,5.7c0.8,1.2,1.4,2.1,2,2.9c1.8,3.4,3.5,6.8,5.5,10.5
		c3.3-1.8,6.3-3.5,9.5-5.3c6.8,3.9,13.5,7.9,20.4,11.7c1.7,1,1.8,2.5,2,4.1c0,5.9-0.4,11.7,0,17.5c0.3,4-1.3,6.1-4.7,7.9
		c-5.3,2.8-10.3,6-15.5,9c-1.5,0.8-2.9,0.8-4.5-0.2c-5.8-3.5-11.7-6.8-17.6-10.1c-1.9-1.1-2.7-2.4-2.6-4.6c0.1-2.5,0-4.9,0-7.4
		c-4.1,0-7.7,0-11.3,0c-1.2,0-2.4,0-4,0c0,2.1-0.2,4,0,5.8c0.5,3.6-1.2,5.5-4.1,7.1c-4.9,2.7-9.7,5.7-14.5,8.6
		c-1.4,0.6-2.7,1.1-4.1,1.7c-7.5-4.3-14.8-8.5-22.2-12.7C1.1,92.9,1.1,84.4,1.1,75.8z M29.9,72c-2.2-1.4-4.3-2.7-6.3-4
		c-5.4,3.1-10.3,6-15.7,9.2c2.4,1.3,4.2,2.3,6,3.3c3.3,1.9,6.6,3.8,9.8,5.6c5.3-3.1,10.2-5.9,15.6-9C35.8,75.1,32.9,73.6,29.9,72z
		 M46.3,29.4c2.4,1.5,4.8,3,7.3,4.6c5.1-3,10.2-5.9,15.6-9c-3.6-2-6.8-3.9-10-5.7c-1.9-1.1-3.8-2.2-5.6-3.3
		c-5.3,3.1-10.3,5.9-15.8,9.1C41,26.6,43.7,28,46.3,29.4z M74.8,80.5c3,1.9,6.1,3.7,9.1,5.5c5.3-3.1,10.3-5.9,15.6-9
		c-3.7-2.1-6.9-3.9-10.1-5.7c-1.8-1.1-3.6-2.2-5.5-3.3c-5.2,3-10.2,5.9-15.9,9.2C70.6,78.5,72.7,79.5,74.8,80.5z M11.7,102.1
		c3.1,1.9,6.2,3.7,9.6,5.7c0-6.4,0-12.1,0-18c-3.2-1.7-6.3-3.5-9.5-5.2c-1.9-1.2-3.7-2.4-5.9-3.8c0,6.3,0,12.2,0,18.3
		C7.7,100.1,9.7,101.1,11.7,102.1z M40.9,49.6c3.4,2,6.8,4,10.5,6.1c0-6.3,0-12,0-18c-3.1-1.7-6.3-3.4-9.4-5.1
		c-1.9-1.2-3.9-2.5-6.1-3.9c0,6.5,0,12.3,0,18.2C37.6,47.8,39.3,48.7,40.9,49.6z M71.2,101.7c3.2,2.2,6.7,4,10.4,6
		c0-6.3,0-11.9,0-17.9c-3.4-1.9-6.9-3.8-10.3-5.8c-1.6-1-3.3-2.1-5.2-3.3c0,6.3,0,12.1,0,18.2C67.7,99.9,69.4,100.8,71.2,101.7z
		 M56.8,60.7c-2.3,1.2-4.4,1.2-6.6-0.5c-1.7-1.3-3.8-2.2-5.8-3.3c-2.6,4.6-5.1,8.9-7.7,13.5c1.8,1.1,3.2,2.3,4.9,3
		c3.2,1.3,4.7,3.5,4.5,6.9c0,2,0,4,0,6.1c1.6,0,2.8,0,4,0c3.7,0,7.4,0,11.3,0c0-2.5,0.2-4.8,0-7c-0.2-2.6,0.8-4.2,3.1-5.3
		c2.1-1,4-2.4,6.4-3.7c-2.2-3.5-4.3-6.7-6.4-9.9c-0.6-1.1-1.1-2.2-1.8-3.5C60.5,58.3,58.7,59.5,56.8,60.7z M101.3,99.2
		c0-6.2,0-11.9,0-18C96,84.3,91,87.1,86.3,89.8c0,6.1,0,11.8,0,17.9C91.6,104.7,96.4,102,101.3,99.2z M56.1,55.7
		c5.3-3.1,10.4-6,15.1-8.8c0-6.1,0-11.8,0-17.9c-5.3,3-10.2,5.9-15.1,8.7C56.1,43.7,56.1,49.4,56.1,55.7z M26.1,89.8
		c0,6,0,11.8,0,17.9c5.3-3.1,10.2-6,15-8.7c0-6.1,0-11.8,0-17.9C35.9,84.1,31,87,26.1,89.8z"/>
	<path class="st1" d="M109.6,105.2c-4.5,2.4-9,4.7-13.5,7.2c-2,1.1-3.9,2.2-5.9,3.4c-1.5-0.9-2.9-1.7-4.2-2.5c5.2-3,10.2-6.2,15.5-9
		c3.4-1.8,4.9-3.9,4.7-7.9c-0.4-5.8,0-11.7,0-17.5c0.5,1.7,1.4,3,3.4,3C109.6,89.6,109.6,97.4,109.6,105.2z"/>
	<path class="st1" d="M68.9,57.7c-0.6-0.9-1.2-1.8-2-2.9c3.1-1.9,5.9-3.6,9.2-5.7c0-7.6,0-15.3,0-23c0.1,2.3,2.4,2.6,3.9,3.9
		c0,7.3,0,14.6,0,22.7C76.5,54.3,72.7,56,68.9,57.7z"/>
	<path class="st1" d="M101.3,99.2c-4.9,2.8-9.7,5.6-14.9,8.6c0-6.1,0-11.8,0-17.9c4.7-2.7,9.6-5.6,14.9-8.6
		C101.3,87.2,101.3,93,101.3,99.2z"/>
	<path class="st1" d="M56.1,55.7c0-6.2,0-12,0-17.9C61,34.9,65.9,32,71.2,29c0,6.1,0,11.7,0,17.9C66.4,49.6,61.4,52.6,56.1,55.7z"/>
	<path class="st1" d="M26.1,89.8c4.8-2.8,9.8-5.6,15-8.7c0,6.1,0,11.8,0,17.9c-4.8,2.8-9.7,5.6-15,8.7
		C26.1,101.6,26.1,95.8,26.1,89.8z"/>
	<path class="st1" d="M71.2,84.1c3.5,1.9,7,3.9,10.3,5.8c0,6,0,11.6,0,17.9c-3.7-2-7.2-3.8-10.4-6C71.2,95.9,71.2,90,71.2,84.1z"/>
	<path class="st1" d="M42,32.6c3.2,1.7,6.3,3.4,9.4,5.1c0,6.1,0,11.8,0,18c-3.7-2.2-7.1-4.2-10.5-6.1c0.3-1.1,0.8-2.2,0.8-3.4
		C41.9,41.7,41.9,37.1,42,32.6z"/>
	<path class="st1" d="M11.8,84.6c3.1,1.7,6.3,3.4,9.5,5.2c0,5.9,0,11.6,0,18c-3.4-2-6.5-3.9-9.6-5.7C11.7,96.3,11.7,90.5,11.8,84.6z
		"/>
	<path class="st1" d="M89.3,71.3c3.2,1.8,6.4,3.7,10.1,5.7c-5.4,3.1-10.3,5.9-15.6,9c-3-1.8-6-3.7-9.1-5.5c2.3-1.4,4.6-2.8,6.9-4.3
		C84.2,74.6,86.8,72.9,89.3,71.3z"/>
	<path class="st1" d="M59.3,19.2c3.2,1.8,6.4,3.7,10,5.7c-5.4,3.1-10.5,6.1-15.6,9c-2.5-1.6-4.9-3.1-7.3-4.6
		c-0.1-0.6-0.3-1.1-0.5-1.9c1.9-1.1,3.7-2.1,5.5-3.2C54,22.7,56.6,20.9,59.3,19.2z"/>
	<path class="st1" d="M29.9,72c2.9,1.6,5.9,3.1,9.4,5c-5.4,3.1-10.3,6-15.6,9c-3.2-1.8-6.5-3.7-9.8-5.6c1.5-0.6,3-1.2,4.4-1.9
		C22.2,76.4,26,74.2,29.9,72z"/>
	<path class="st1" d="M50.1,91c0,4.5,0,9,0,13.7c-6.5,3.7-12.9,7.4-19.9,11.4c-1-1.3-1.9-2.4-2.8-3.6c4.8-2.9,9.6-5.9,14.5-8.6
		c3-1.6,4.7-3.5,4.1-7.1c-0.3-1.8,0-3.7,0-5.8C47.7,91,48.9,91,50.1,91z"/>
	<path class="st1" d="M64.6,60.3c-2.6,3.4-3.7,3.5-7.7,0.4c1.8-1.2,3.7-2.4,6-3.8C63.4,58.1,64,59.2,64.6,60.3z"/>
	<path class="st1" d="M46.1,80.2c1.3,0.6,2.6,1.3,4,2c0,1.4,0,2.8,0,4.1c-1.2,0-2.4,0-4,0C46.1,84.2,46.1,82.2,46.1,80.2z"/>
</g>
</svg>
